<svg version="1.1" id="Layer_1" xmlns="http://www.w3.org/2000/svg" xmlns:xlink="http://www.w3.org/1999/xlink" x="0px" y="0px"
	 width="100%" viewBox="0 0 512 512" enable-background="new 0 0 512 512" xml:space="preserve">
<path fill="#000000" opacity="1.000000" stroke="none" 
	d="
M513.000000,181.000000 
	C513.000000,291.581848 513.000000,402.163696 513.000000,513.000000 
	C433.645966,513.000000 354.291626,513.000000 274.134644,512.692993 
	C273.666870,512.016052 273.949707,511.393738 274.344208,511.312317 
	C290.218750,508.033356 302.949707,499.622101 313.790527,487.798370 
	C324.330414,476.302826 330.752808,462.638794 331.708588,447.454102 
	C332.888550,428.707764 331.890259,409.824371 331.906311,390.538452 
	C332.325653,384.322052 333.020935,378.563049 332.948547,372.813690 
	C332.775696,359.084625 335.717804,345.988312 340.399689,333.226349 
	C346.289886,317.170746 354.866577,302.729675 366.988068,290.549286 
	C378.689636,278.790863 389.576324,266.391968 398.323730,252.214554 
	C411.753357,230.448349 419.445038,206.647430 421.767914,181.372543 
	C422.866791,169.415497 421.624756,157.201782 420.942780,145.132645 
	C419.989777,128.266556 414.822968,112.386505 407.959839,97.125526 
	C396.611908,71.892143 379.770233,50.913834 357.697357,34.162003 
	C336.022552,17.712290 311.853149,7.133307 284.924347,2.916664 
	C284.200592,2.803335 283.637848,1.661967 283.000000,1.000002 
	C359.578339,1.000000 436.156647,1.000000 513.000000,1.000000 
	C513.000000,50.687248 513.000000,100.374962 512.531372,150.531342 
	C492.144073,151.000000 472.225464,151.000000 452.310913,151.000000 
	C452.310913,161.297775 452.310913,171.021378 452.310913,181.000000 
	C472.747131,181.000000 492.873566,181.000000 513.000000,181.000000 
M459.509613,106.015182 
	C472.440826,93.086609 485.372070,80.158035 497.731354,67.801277 
	C490.053558,60.118179 482.708160,52.767693 476.251740,46.306786 
	C461.620117,60.915630 446.604736,75.907654 432.230591,90.259422 
	C439.036774,97.056267 446.305511,104.315048 454.158905,112.157707 
	C455.549988,110.540306 457.279541,108.529381 459.509613,106.015182 
M432.459442,240.026566 
	C432.456970,241.339554 431.881378,243.216110 432.536530,243.882385 
	C445.949127,257.522308 459.458923,271.068298 473.132294,284.445984 
	C473.973877,285.269409 476.985809,285.255402 477.870789,284.431335 
	C483.953247,278.767578 489.825043,272.865875 495.516541,266.807648 
	C496.296661,265.977295 496.384338,263.186859 495.643127,262.430695 
	C481.596313,248.101440 467.376526,233.941757 452.934540,219.488327 
	C446.087555,226.364517 439.532623,232.947403 432.459442,240.026566 
z"/>
<path fill="#000000" opacity="1.000000" stroke="none" 
	d="
M1.000000,151.000000 
	C1.000000,101.057617 1.000000,51.115234 1.000000,1.000000 
	C77.354141,1.000000 153.708405,1.000000 230.868347,1.326887 
	C231.177505,2.078992 230.742554,2.751255 230.175278,2.892649 
	C220.472595,5.311066 210.572617,7.099938 201.075455,10.147418 
	C180.769608,16.663223 162.858154,27.694687 146.924393,41.715477 
	C134.681961,52.488121 124.138855,64.868202 115.633148,78.876556 
	C102.396156,100.677063 94.064804,124.292694 92.189835,149.659485 
	C90.244621,175.976395 92.915520,201.943878 102.991058,226.751022 
	C109.931053,243.838120 119.136078,259.559753 131.135086,273.546906 
	C139.702744,283.534149 149.205170,292.755432 157.346771,303.063843 
	C170.028137,319.120270 177.086868,337.876617 179.861694,358.032257 
	C181.360764,368.921051 181.444351,380.004761 182.089630,391.464050 
	C182.008484,408.209595 181.697052,424.499939 182.140686,440.769745 
	C182.337234,447.977966 182.834457,455.601471 185.310562,462.248474 
	C194.547836,487.045563 211.695221,503.906586 237.669083,511.052216 
	C238.557434,511.296600 239.227951,512.332825 240.000000,513.000000 
	C160.394409,513.000000 80.788818,513.000000 1.000000,513.000000 
	C1.000000,402.645844 1.000000,292.291565 1.468657,181.468689 
	C21.861244,181.000061 41.785172,181.000061 61.697205,181.000061 
	C61.697205,170.704742 61.697205,160.976578 61.697205,151.000000 
	C41.263588,151.000000 21.131794,151.000000 1.000000,151.000000 
M61.989853,68.510147 
	C54.045414,60.532063 46.100971,52.553974 38.663254,45.084759 
	C30.900814,52.842617 23.633890,60.105251 16.927282,66.807899 
	C31.615873,81.561211 46.593632,96.604965 61.256466,111.332397 
	C68.208496,104.359871 75.460373,97.086617 83.021088,89.503609 
	C76.348434,82.843224 69.419144,75.926689 61.989853,68.510147 
M64.479691,222.985916 
	C63.305485,221.898727 62.131275,220.811539 60.865738,219.639786 
	C46.679237,233.831345 32.852955,247.763153 18.879326,261.545563 
	C16.453447,263.938232 16.745857,265.416809 19.027565,267.595428 
	C24.441212,272.764465 29.788565,278.019836 34.878696,283.503906 
	C37.510971,286.339905 39.175449,286.519562 42.021397,283.602448 
	C54.685581,270.621613 67.600838,257.885834 80.410583,245.046753 
	C81.411110,244.043961 82.298119,242.927887 83.391708,241.690414 
	C77.047775,235.413284 71.017899,229.446884 64.479691,222.985916 
z"/>
<path fill="#FED843" opacity="1.000000" stroke="none" 
	d="
M182.166534,391.000519 
	C181.444351,380.004761 181.360764,368.921051 179.861694,358.032257 
	C177.086868,337.876617 170.028137,319.120270 157.346771,303.063843 
	C149.205170,292.755432 139.702744,283.534149 131.135086,273.546906 
	C119.136078,259.559753 109.931053,243.838120 102.991058,226.751022 
	C92.915520,201.943878 90.244621,175.976395 92.189835,149.659485 
	C94.064804,124.292694 102.396156,100.677063 115.633148,78.876556 
	C124.138855,64.868202 134.681961,52.488121 146.924393,41.715477 
	C162.858154,27.694687 180.769608,16.663223 201.075455,10.147418 
	C210.572617,7.099938 220.472595,5.311066 230.175278,2.892649 
	C230.742554,2.751255 231.177505,2.078992 231.337006,1.326887 
	C239.354233,1.000000 247.708450,1.000000 256.531342,1.468657 
	C256.996826,31.576841 256.993652,61.216370 257.010376,90.929352 
	C257.030304,91.002808 257.022461,91.154816 256.591492,91.098663 
	C246.557068,91.305756 237.855240,94.216728 230.158768,99.992088 
	C212.995651,112.871124 210.464111,130.886475 212.379456,150.684723 
	C222.206436,150.684723 231.920715,150.684723 242.003143,150.684723 
	C242.003143,146.400635 241.996017,142.430466 242.004532,138.460312 
	C242.027359,127.821831 246.567947,122.501457 257.025024,120.929016 
	C257.028900,121.005142 256.986176,121.151489 256.986877,121.610291 
	C257.055359,133.166702 257.123077,144.264297 257.151917,155.600708 
	C256.974762,156.135239 256.891907,156.445724 256.574097,156.946381 
	C242.625092,172.651764 240.650040,191.153122 242.383179,210.847824 
	C247.449142,210.847824 252.235138,210.847824 257.025574,210.923462 
	C257.030029,210.999084 256.989807,211.145157 256.992462,211.604706 
	C256.996185,221.647186 256.997253,231.230118 256.539062,240.889069 
	C251.501099,240.965118 246.922424,240.965118 242.334930,240.965118 
	C242.334930,251.320892 242.334930,260.998016 242.334930,271.186981 
	C247.443207,271.186981 252.220703,271.186981 256.998657,271.643921 
	C257.013245,311.679962 257.027374,351.259064 256.574493,390.899414 
	C231.460526,390.973938 206.813522,390.987244 182.166534,391.000519 
z"/>
<path fill="#FABE2C" opacity="1.000000" stroke="none" 
	d="
M256.990479,90.855896 
	C256.993652,61.216370 256.996826,31.576841 257.000000,1.468657 
	C265.354218,1.000000 273.708466,1.000000 282.531342,1.000002 
	C283.637848,1.661967 284.200592,2.803335 284.924347,2.916664 
	C311.853149,7.133307 336.022552,17.712290 357.697357,34.162003 
	C379.770233,50.913834 396.611908,71.892143 407.959839,97.125526 
	C414.822968,112.386505 419.989777,128.266556 420.942780,145.132645 
	C421.624756,157.201782 422.866791,169.415497 421.767914,181.372543 
	C419.445038,206.647430 411.753357,230.448349 398.323730,252.214554 
	C389.576324,266.391968 378.689636,278.790863 366.988068,290.549286 
	C354.866577,302.729675 346.289886,317.170746 340.399689,333.226349 
	C335.717804,345.988312 332.775696,359.084625 332.948547,372.813690 
	C333.020935,378.563049 332.325653,384.322052 331.448303,390.538513 
	C306.266052,391.047943 281.614899,391.095581 257.003387,391.072144 
	C257.043060,391.001038 257.041504,390.838196 257.041504,390.838196 
	C257.027374,351.259064 257.013245,311.679962 257.015594,271.553589 
	C257.032074,271.006348 256.998291,270.825745 257.458923,270.898346 
	C262.503815,270.970947 267.088013,270.970947 271.674438,270.970947 
	C271.674438,260.685577 271.674438,250.994705 271.674438,241.174271 
	C266.566437,241.174271 261.782227,241.174271 257.015045,241.083984 
	C257.032074,240.993683 256.998322,240.813034 256.998322,240.813034 
	C256.997253,231.230118 256.996185,221.647186 257.455078,211.545471 
	C262.507751,211.026657 267.100464,211.026657 272.002899,211.026657 
	C272.002899,208.065704 272.155853,205.751678 271.977844,203.463394 
	C270.894684,189.538727 275.439392,178.659302 286.714020,169.564316 
	C299.522064,159.232346 304.320099,144.648636 301.351654,128.417877 
	C297.218384,105.818336 280.516571,92.078941 256.990479,90.855896 
z"/>
<path fill="#EDF5FF" opacity="1.000000" stroke="none" 
	d="
M182.089630,391.464050 
	C206.813522,390.987244 231.460526,390.973938 256.574524,390.899414 
	C257.041504,390.838196 257.043060,391.001038 257.011414,391.531250 
	C256.986481,432.374329 256.993225,472.687164 257.000000,513.000000 
	C251.645065,513.000000 246.290146,513.000000 240.467621,513.000000 
	C239.227951,512.332825 238.557434,511.296600 237.669083,511.052216 
	C211.695221,503.906586 194.547836,487.045563 185.310562,462.248474 
	C182.834457,455.601471 182.337234,447.977966 182.140686,440.769745 
	C181.697052,424.499939 182.008484,408.209595 182.089630,391.464050 
z"/>
<path fill="#D5E8FE" opacity="1.000000" stroke="none" 
	d="
M257.467590,513.000000 
	C256.993225,472.687164 256.986481,432.374329 256.971741,391.602356 
	C281.614899,391.095581 306.266052,391.047943 331.375244,391.000244 
	C331.890259,409.824371 332.888550,428.707764 331.708588,447.454102 
	C330.752808,462.638794 324.330414,476.302826 313.790527,487.798370 
	C302.949707,499.622101 290.218750,508.033356 274.344208,511.312317 
	C273.949707,511.393738 273.666870,512.016052 273.665955,512.692993 
	C268.645081,513.000000 263.290131,513.000000 257.467590,513.000000 
z"/>
<path fill="#FED843" opacity="1.000000" stroke="none" 
	d="
M1.000000,151.468658 
	C21.131794,151.000000 41.263588,151.000000 61.697205,151.000000 
	C61.697205,160.976578 61.697205,170.704742 61.697205,181.000061 
	C41.785172,181.000061 21.861244,181.000061 1.468657,181.000031 
	C1.000000,171.312439 1.000000,161.624878 1.000000,151.468658 
z"/>
<path fill="#FABE2C" opacity="1.000000" stroke="none" 
	d="
M513.000000,180.531342 
	C492.873566,181.000000 472.747131,181.000000 452.310913,181.000000 
	C452.310913,171.021378 452.310913,161.297775 452.310913,151.000000 
	C472.225464,151.000000 492.144073,151.000000 512.531372,151.000000 
	C513.000000,160.687561 513.000000,170.375122 513.000000,180.531342 
z"/>
<path fill="#FABE2C" opacity="1.000000" stroke="none" 
	d="
M459.259338,106.266815 
	C457.279541,108.529381 455.549988,110.540306 454.158905,112.157707 
	C446.305511,104.315048 439.036774,97.056267 432.230591,90.259422 
	C446.604736,75.907654 461.620117,60.915630 476.251740,46.306786 
	C482.708160,52.767693 490.053558,60.118179 497.731354,67.801277 
	C485.372070,80.158035 472.440826,93.086609 459.259338,106.266815 
z"/>
<path fill="#FABD2B" opacity="1.000000" stroke="none" 
	d="
M432.718567,239.778442 
	C439.532623,232.947403 446.087555,226.364517 452.934540,219.488327 
	C467.376526,233.941757 481.596313,248.101440 495.643127,262.430695 
	C496.384338,263.186859 496.296661,265.977295 495.516541,266.807648 
	C489.825043,272.865875 483.953247,278.767578 477.870789,284.431335 
	C476.985809,285.255402 473.973877,285.269409 473.132294,284.445984 
	C459.458923,271.068298 445.949127,257.522308 432.536530,243.882385 
	C431.881378,243.216110 432.456970,241.339554 432.718567,239.778442 
z"/>
<path fill="#FED843" opacity="1.000000" stroke="none" 
	d="
M62.239857,68.760147 
	C69.419144,75.926689 76.348434,82.843224 83.021088,89.503609 
	C75.460373,97.086617 68.208496,104.359871 61.256466,111.332397 
	C46.593632,96.604965 31.615873,81.561211 16.927282,66.807899 
	C23.633890,60.105251 30.900814,52.842617 38.663254,45.084759 
	C46.100971,52.553974 54.045414,60.532063 62.239857,68.760147 
z"/>
<path fill="#FED843" opacity="1.000000" stroke="none" 
	d="
M64.733856,223.233215 
	C71.017899,229.446884 77.047775,235.413284 83.391708,241.690414 
	C82.298119,242.927887 81.411110,244.043961 80.410583,245.046753 
	C67.600838,257.885834 54.685581,270.621613 42.021397,283.602448 
	C39.175449,286.519562 37.510971,286.339905 34.878696,283.503906 
	C29.788565,278.019836 24.441212,272.764465 19.027565,267.595428 
	C16.745857,265.416809 16.453447,263.938232 18.879326,261.545563 
	C32.852955,247.763153 46.679237,233.831345 60.865738,219.639786 
	C62.131275,220.811539 63.305485,221.898727 64.733856,223.233215 
z"/>
<path fill="#2A386D" opacity="1.000000" stroke="none" 
	d="
M257.010376,90.929352 
	C280.516571,92.078941 297.218384,105.818336 301.351654,128.417877 
	C304.320099,144.648636 299.522064,159.232346 286.714020,169.564316 
	C275.439392,178.659302 270.894684,189.538727 271.977844,203.463394 
	C272.155853,205.751678 272.002899,208.065704 272.002899,211.026657 
	C267.100464,211.026657 262.507751,211.026657 257.452423,211.085907 
	C256.989807,211.145157 257.030029,210.999084 257.021301,210.464905 
	C256.963165,192.210800 256.913788,174.490891 256.864441,156.770981 
	C256.891907,156.445724 256.974762,156.135239 257.448120,155.436005 
	C260.267853,152.817093 262.685883,150.521042 265.251099,148.403275 
	C270.404449,144.148819 273.206268,139.077133 271.206055,132.235199 
	C269.132690,125.143127 264.191925,121.682709 256.986176,121.151489 
	C256.986176,121.151489 257.028900,121.005142 257.020874,120.470146 
	C257.016022,110.341705 257.019226,100.748260 257.022461,91.154816 
	C257.022461,91.154816 257.030304,91.002808 257.010376,90.929352 
z"/>
<path fill="#48578C" opacity="1.000000" stroke="none" 
	d="
M256.591492,91.098663 
	C257.019226,100.748260 257.016022,110.341705 257.016968,120.394020 
	C246.567947,122.501457 242.027359,127.821831 242.004532,138.460312 
	C241.996017,142.430466 242.003143,146.400635 242.003143,150.684723 
	C231.920715,150.684723 222.206436,150.684723 212.379456,150.684723 
	C210.464111,130.886475 212.995651,112.871124 230.158768,99.992088 
	C237.855240,94.216728 246.557068,91.305756 256.591492,91.098663 
z"/>
<path fill="#49578B" opacity="1.000000" stroke="none" 
	d="
M256.574066,156.946381 
	C256.913788,174.490891 256.963165,192.210800 257.016846,210.389267 
	C252.235138,210.847824 247.449142,210.847824 242.383179,210.847824 
	C240.650040,191.153122 242.625092,172.651764 256.574066,156.946381 
z"/>
<path fill="#47568C" opacity="1.000000" stroke="none" 
	d="
M257.015137,271.096680 
	C252.220703,271.186981 247.443207,271.186981 242.334930,271.186981 
	C242.334930,260.998016 242.334930,251.320892 242.334930,240.965118 
	C246.922424,240.965118 251.501099,240.965118 256.539062,240.889069 
	C256.998322,240.813034 257.032074,240.993683 257.012726,241.541565 
	C256.995026,251.668228 256.996674,261.246979 256.998291,270.825745 
	C256.998291,270.825745 257.032074,271.006348 257.015137,271.096680 
z"/>
<path fill="#F8BD2D" opacity="1.000000" stroke="none" 
	d="
M256.986877,121.610291 
	C264.191925,121.682709 269.132690,125.143127 271.206055,132.235199 
	C273.206268,139.077133 270.404449,144.148819 265.251099,148.403275 
	C262.685883,150.521042 260.267853,152.817093 257.487030,155.197205 
	C257.123077,144.264297 257.055359,133.166702 256.986877,121.610291 
z"/>
<path fill="#29376D" opacity="1.000000" stroke="none" 
	d="
M257.458923,270.898346 
	C256.996674,261.246979 256.995026,251.668228 256.995697,241.631866 
	C261.782227,241.174271 266.566437,241.174271 271.674438,241.174271 
	C271.674438,250.994705 271.674438,260.685577 271.674438,270.970947 
	C267.088013,270.970947 262.503815,270.970947 257.458923,270.898346 
z"/>
</svg>